# xmcd CD database file
#
# Track frame offsets:
#	150
#	14163
#	28295
#	42488
#	54522
#	66677
#	77020
#	87639
#	99387
#	113335
#	125767
#	147895
#	158746
#	173384
#	188592
#	203328
#	214474
#	229797
#	244683
#	268731
#	281866
#	297493
#	312681
#	318949
#
# Disc length: 4410 seconds
#
# Revision: 1
# Processed by: cddbd v1.5.2PL0 Copyright (c) Steve Scherf et al.
# Submitted via: CDex 1.51
#
DISCID=6c113818
DTITLE=Les rois du jazz - CD1
DYEAR=1995
DGENRE=Jazz
TTITLE0=Saint Louis blues
TTITLE1=Tiger rag
TTITLE2=On the sunny side of street
TTITLE3=The circle of your arms
TTITLE4=Short but sweet
TTITLE5=So long dearie, de hello dolly
TTITLE6=Pretty little missy
TTITLE7=I like this kind of party
TTITLE8=Bye'n bye
TTITLE9=Faith
TTITLE10=Nobody knows the trouble i've seen
TTITLE11=Mame
TTITLE12=When the saints go marchin'in
TTITLE13=Petite fleur
TTITLE14=Si tu vois ma mère
TTITLE15=Les oignons
TTITLE16=Society blues
TTITLE17=Promenade aux champs-elysées
TTITLE18=As-tu l'cafard
TTITLE19=Le marchand de poissons
TTITLE20=Dans les rues d'antibes
TTITLE21=Brave margot
TTITLE22=J'ai deux amours
TTITLE23=La complainte des infidèles
EXTD=YEAR: 1995
EXTT0=
EXTT1=
EXTT2=
EXTT3=
EXTT4=
EXTT5=
EXTT6=
EXTT7=
EXTT8=
EXTT9=
EXTT10=
EXTT11=
EXTT12=
EXTT13=
EXTT14=
EXTT15=
EXTT16=
EXTT17=
EXTT18=
EXTT19=
EXTT20=
EXTT21=
EXTT22=
EXTT23=
PLAYORDER=
